<svg version="1.1" id="Layer_1" xmlns="http://www.w3.org/2000/svg" xmlns:xlink="http://www.w3.org/1999/xlink" x="0px" y="0px" style="enable-background:new 0 0 680.5 252.1;" xml:space="preserve" viewBox="99.5 84.68 481.62 82.75">
<style type="text/css">
	.st0{fill:#100E42;}
	.st1{fill:#DB2D54;}
	.st2{fill:#FFFFFF;}
</style>
<g>
	<g>
		<path class="st1" d="M227.8,143.6c0.3,4.2,2.1,7.6,5.1,10.1c3.1,2.5,7.1,3.8,12.1,3.8c4.3,0,7.9-0.9,10.5-2.8c2.7-1.9,4-4.5,4-7.8    c0-2.4-0.7-4.3-2.2-5.7c-1.5-1.4-3.4-2.5-6-3.2c-2.5-0.7-6-1.5-10.6-2.3c-4.6-0.8-8.6-1.9-11.9-3.2c-3.3-1.3-6-3.3-8.1-6.1    c-2.1-2.7-3.1-6.3-3.1-10.7c0-4.1,1.1-7.7,3.2-10.9c2.1-3.2,5.1-5.7,9-7.4c3.8-1.8,8.2-2.6,13.2-2.6c5.1,0,9.6,1,13.7,2.9    c4,1.9,7.2,4.5,9.5,7.8c2.3,3.3,3.6,7.1,3.8,11.4h-11.5c-0.4-3.7-2-6.6-4.8-8.9c-2.8-2.2-6.3-3.4-10.6-3.4c-4.1,0-7.5,0.9-9.9,2.7    c-2.5,1.8-3.7,4.3-3.7,7.6c0,2.3,0.7,4.1,2.2,5.5c1.5,1.4,3.4,2.4,5.9,3.1c2.4,0.7,5.9,1.4,10.5,2.2c4.6,0.8,8.6,1.9,11.9,3.3    c3.3,1.4,6,3.4,8.2,6c2.1,2.6,3.2,6.1,3.2,10.5c0,4.2-1.1,8-3.4,11.3c-2.2,3.3-5.4,5.9-9.4,7.8c-4,1.9-8.6,2.8-13.7,2.8    c-5.6,0-10.6-1-14.9-3.1c-4.3-2-7.6-4.9-10-8.5c-2.4-3.6-3.7-7.8-3.7-12.5L227.8,143.6z"/>
		<path class="st1" d="M278.5,102.1l11-2.1v14.6h12.6v9.7h-12.6v27.2c0,2,0.4,3.5,1.2,4.3c0.8,0.9,2.2,1.3,4.2,1.3h8.4v9.7h-10.6    c-5,0-8.6-1.2-10.8-3.5c-2.2-2.3-3.4-5.9-3.4-10.7V102.1z"/>
		<path class="st1" d="M356.8,114.6v52.2h-9.7l-1.2-7.9c-1.8,2.6-4.2,4.7-7,6.2c-2.9,1.6-6.2,2.3-10,2.3c-4.8,0-9-1.1-12.7-3.2    c-3.7-2.1-6.7-5.2-8.8-9.3c-2.1-4-3.2-8.8-3.2-14.2c0-5.3,1.1-10,3.2-14c2.1-4,5.1-7.2,8.8-9.4c3.7-2.2,7.9-3.3,12.6-3.3    c3.9,0,7.2,0.7,10.1,2.2c2.9,1.5,5.2,3.5,6.9,6.1l1.3-7.6H356.8z M341.7,153.3c2.8-3.2,4.2-7.3,4.2-12.4c0-5.2-1.4-9.4-4.2-12.6    c-2.8-3.3-6.5-4.9-11-4.9c-4.6,0-8.2,1.6-11,4.8c-2.8,3.2-4.2,7.4-4.2,12.5c0,5.2,1.4,9.4,4.2,12.6c2.8,3.2,6.5,4.8,11,4.8    C335.2,158.1,338.9,156.5,341.7,153.3z"/>
		<path class="st1" d="M365.5,97.5l11-2.1v71.3h-11V97.5z"/>
		<path class="st1" d="M380.3,114.6h11.6l11.9,39.9l11.9-39.9h10.1l11.4,39.9l12.3-39.9h11.2l-17.3,52.2h-11.8l-11-35.5l-11.4,35.5    l-11.9,0.1L380.3,114.6z"/>
		<path class="st1" d="M513.7,114.6v52.2H504l-1.2-7.9c-1.8,2.6-4.2,4.7-7,6.2c-2.9,1.6-6.2,2.3-10,2.3c-4.8,0-9-1.1-12.7-3.2    c-3.7-2.1-6.7-5.2-8.8-9.3c-2.1-4-3.2-8.8-3.2-14.2c0-5.3,1.1-10,3.2-14c2.1-4,5.1-7.2,8.8-9.4c3.7-2.2,7.9-3.3,12.6-3.3    c3.9,0,7.2,0.7,10.1,2.2c2.9,1.5,5.2,3.5,6.9,6.1l1.3-7.6H513.7z M498.6,153.3c2.8-3.2,4.2-7.3,4.2-12.4c0-5.2-1.4-9.4-4.2-12.6    c-2.8-3.3-6.5-4.9-11-4.9c-4.6,0-8.2,1.6-11,4.8c-2.8,3.2-4.2,7.4-4.2,12.5c0,5.2,1.4,9.4,4.2,12.6c2.8,3.2,6.5,4.8,11,4.8    C492.2,158.1,495.8,156.5,498.6,153.3z"/>
		<path class="st1" d="M551.3,114.6v10.3h-4.9c-4.6,0-7.8,1.5-9.9,4.4c-2,3-3.1,6.7-3.1,11.3v26.2h-11v-52.2h9.8l1.2,7.8    c1.5-2.4,3.4-4.4,5.8-5.8c2.4-1.4,5.6-2.1,9.6-2.1H551.3z"/>
		<path class="st1" d="M556.3,102.1l11-2.1v14.6h12.6v9.7h-12.6v27.2c0,2,0.4,3.5,1.2,4.3c0.8,0.9,2.2,1.3,4.2,1.3h8.4v9.7h-10.6    c-5,0-8.6-1.2-10.8-3.5s-3.4-5.9-3.4-10.7V102.1z"/>
	</g>
	<g>
		<path class="st1" d="M149.1,84.7h-4.8l-44.8,25.9v8.3l44.8,25.9h4.8l44.8-25.9v-8.3L149.1,84.7z M182,114.7h-35.3V94.4L182,114.7z     M146.7,135.1l-35.3-20.4l27-15.6v15.6v4.1v0.5l6.3,3.6h22.9L146.7,135.1z"/>
		<polygon class="st1" points="99.5,129.9 99.5,140.9 144.3,166.8 149.1,166.8 193.9,140.9 193.9,129.9 146.7,157.2   "/>
		<polygon class="st1" points="187.3,166.8 193.9,163 193.9,152 168.2,166.8   "/>
		<polygon class="st1" points="99.5,163 106.1,166.8 125.2,166.8 99.5,152   "/>
	</g>
</g>
</svg>